HIERARCHY
ROOT root
{
	OFFSET	0	13.1	24.9
	CHANNELS 6  Xposition Yposition Zposition Xrotation Yrotation Zrotation
	JOINT spine_1
	{
		OFFSET	0	9.99999	0
		CHANNELS 3  Xrotation Yrotation Zrotation
		JOINT spine_2
		{
			OFFSET	0	112	-10
			CHANNELS 3  Xrotation Yrotation Zrotation
			JOINT spine_3
			{
				OFFSET	0	206.5	19.3
				CHANNELS 3  Xrotation Yrotation Zrotation
				JOINT spine_4
				{
					OFFSET	0	110.4	14.6
					CHANNELS 3  Xrotation Yrotation Zrotation
					JOINT neck_1
					{
						OFFSET	0	71.8	-50.3
						CHANNELS 3  Xrotation Yrotation Zrotation
						JOINT neck_2
						{
							OFFSET	0	86.2	-25.8
							CHANNELS 3  Xrotation Yrotation Zrotation
							JOINT head_ee
							{
								OFFSET	0	179.8	-8.7
								CHANNELS 3  Xrotation Yrotation Zrotation
								End Site
								{
									OFFSET	1	0	0
								}
							}
						}
					}
					JOINT left_clavicle
					{
						OFFSET	-43.2	22.4	-70.8
						CHANNELS 3  Xrotation Yrotation Zrotation
						JOINT left_shoulder
						{
							OFFSET	-93.9	-5.79999	48.7
							CHANNELS 3  Xrotation Yrotation Zrotation
							JOINT left_elbow
							{
								OFFSET	-291.4	-30.8	15.2
								CHANNELS 3  Xrotation Yrotation Zrotation
								JOINT left_lowarm_twist
								{
									OFFSET	-110.7	-3.89999	13.6
									CHANNELS 3  Xrotation Yrotation Zrotation
									JOINT left_hand
									{
										OFFSET	-110.7	-3.89999	13.6
										CHANNELS 3  Xrotation Yrotation Zrotation
										JOINT left_ee
										{
											OFFSET	-80.8	-5.10001	12.1
											CHANNELS 3  Xrotation Yrotation Zrotation
											End Site
											{
												OFFSET	1	0	0
											}
										}
									}
								}
							}
						}
					}
					JOINT right_clavicle
					{
						OFFSET	43.2	22.4	-70.8
						CHANNELS 3  Xrotation Yrotation Zrotation
						JOINT right_shoulder
						{
							OFFSET	93.9	-5.79999	48.7
							CHANNELS 3  Xrotation Yrotation Zrotation
							JOINT right_elbow
							{
								OFFSET	291.4	-30.8	15.2
								CHANNELS 3  Xrotation Yrotation Zrotation
								JOINT right_lowarm_twist
								{
									OFFSET	110.7	-3.89999	13.6
									CHANNELS 3  Xrotation Yrotation Zrotation
									JOINT right_hand
									{
										OFFSET	110.7	-3.89999	13.6
										CHANNELS 3  Xrotation Yrotation Zrotation
										JOINT right_ee
										{
											OFFSET	80.8	-5.10001	12.1
											CHANNELS 3  Xrotation Yrotation Zrotation
											End Site
											{
												OFFSET	1	0	0
											}
										}
									}
								}
							}
						}
					}
				}
			}
		}
	}
	JOINT left_hip
	{
		OFFSET	-82.8	-127.5	0.300001
		CHANNELS 3  Xrotation Yrotation Zrotation
		JOINT left_knee
		{
			OFFSET	-28.2	-396.7	2.2
			CHANNELS 3  Xrotation Yrotation Zrotation
			JOINT left_ankle
			{
				OFFSET	-11.7	-411.3	35.4
				CHANNELS 3  Xrotation Yrotation Zrotation
				JOINT left_toes
				{
					OFFSET	0	-60	-88.6
					CHANNELS 3  Xrotation Yrotation Zrotation
					JOINT left_foot_ee
					{
						OFFSET	-22.5	-16.5	-42.2
						CHANNELS 3  Xrotation Yrotation Zrotation
						End Site
						{
							OFFSET	1	0	0
						}
					}
				}
			}
		}
	}
	JOINT right_hip
	{
		OFFSET	82.8	-127.5	0.300001
		CHANNELS 3  Xrotation Yrotation Zrotation
		JOINT right_knee
		{
			OFFSET	28.2	-396.7	2.2
			CHANNELS 3  Xrotation Yrotation Zrotation
			JOINT right_ankle
			{
				OFFSET	11.7	-411.3	35.4
				CHANNELS 3  Xrotation Yrotation Zrotation
				JOINT right_toes
				{
					OFFSET	0	-60	-88.6
					CHANNELS 3  Xrotation Yrotation Zrotation
					JOINT right_foot_ee
					{
						OFFSET	22.5	-16.5	-42.2
						CHANNELS 3  Xrotation Yrotation Zrotation
						End Site
						{
							OFFSET	1	0	0
						}
					}
				}
			}
		}
	}
}
MOTION
Frames: 13
Frame Time: 0.02
955.057571129 749.783 -1518.75273785 31.5585918252 73.4553698057 -32.5619704933 -4.22903 0.234719 1.71759 -4.2274 0.124965 1.72904 -4.22097 -0.367017 1.69427 -4.22496 -0.0948752 1.73095 3.28346 15.9508 -5.96188 4.85092 32.8189 -6.05392 -0.0 0.0 -0.0 0.729588 20.6371 3.46054 -14.8695 -22.7075 62.0713 0.782928 -21.1982 0.14651 35.7223 -0.145662 -4.48791 -0.375268 13.1577 3.04892 -0.0 0.0 -0.0 13.7939 24.5965 -27.6844 1.56746 33.915 -47.686 1.22817 31.315 -0.344252 14.977 -0.282515 1.88689 6.3059 20.1866 -34.9783 0.0 0.0 0.0 10.0629 6.19671 -2.74307 -50.4397 -1.26068 7.3922 -19.7859 18.3111 3.01657 -16.4342 0.0 0.0 -0.0 0.0 -0.0 -10.5551 27.6539 -4.75515 3.62662 0.166243 0.531528 9.29236 -12.2141 1.32772 2.10616 -0.0 -0.0 0.0 0.0 0.0 
934.674278701 742.682 -1518.05279373 31.8703068843 72.9707586633 -32.7624332252 -4.07786 0.505131 1.60826 -4.07651 0.401783 1.63714 -4.06232 -0.0707302 1.68422 -4.06623 0.196111 1.67426 3.38918 16.1015 -5.89003 4.98359 33.0051 -6.00146 -0.0 0.0 -0.0 0.848523 20.9847 3.66335 -16.2292 -22.3029 61.7886 0.634078 -17.4378 0.0972425 35.8651 -0.151845 -4.50509 -0.278567 13.6921 3.87525 -0.0 0.0 -0.0 13.9396 24.6397 -28.0216 3.65387 33.9433 -45.5696 1.26224 32.0154 -0.362138 14.4956 -0.281156 1.82542 6.18997 20.8304 -33.6275 0.0 0.0 0.0 11.1751 7.0232 -3.00331 -47.0926 -0.978486 6.96107 -21.1529 18.7537 3.23073 -18.2556 0.0 0.0 -0.0 0.0 -0.0 -12.1422 26.2582 -4.25143 1.29723 0.055588 0.191297 10.6377 -13.8503 1.517 2.70384 -0.0 -0.0 0.0 0.0 0.0 
935.047145967 742.682 -1521.70306538 31.065219475 72.5627187753 -31.919510473 -4.07786 0.505131 1.60826 -4.07651 0.401783 1.63714 -4.06232 -0.0707302 1.68422 -4.06623 0.196111 1.67426 3.38918 16.1015 -5.89003 4.98359 33.0051 -6.00146 -0.0 0.0 -0.0 0.848523 20.9847 3.66335 -16.2292 -22.3029 61.7886 0.634078 -17.4378 0.0972425 35.8651 -0.151845 -4.50509 -0.278567 13.6921 3.87525 -0.0 0.0 -0.0 13.9396 24.6397 -28.0216 3.65387 33.9433 -45.5696 1.26224 32.0154 -0.362138 14.4956 -0.281156 1.82542 6.18997 20.8304 -33.6275 0.0 0.0 0.0 11.1751 7.0232 -3.00331 -47.0926 -0.978486 6.96107 -21.1529 18.7537 3.23073 -18.2556 0.0 0.0 -0.0 0.0 -0.0 -12.1422 26.2582 -4.25143 1.29723 0.055588 0.191297 10.6377 -13.8503 1.517 2.70384 -0.0 -0.0 0.0 0.0 0.0 
912.144543011 742.591 -1504.10551075 38.8380761678 74.3292700248 -40.0135917982 -4.25164 0.229171 1.65989 -4.25011 0.123099 1.6711 -4.24403 -0.353144 1.638 -4.24776 -0.0900578 1.67321 1.02446 16.6868 -4.84995 2.27423 33.5542 -4.0744 -0.0 0.0 -0.0 0.698712 22.0104 3.54062 -17.2297 -22.4274 62.0993 0.576361 -15.9349 0.0806688 36.3383 -0.17263 -4.5619 -0.209737 16.4371 5.41062 -0.0 0.0 -0.0 13.8103 24.1154 -27.7752 6.43084 33.8457 -46.6637 1.3185 33.1488 -0.392435 13.3342 -0.275751 1.67718 5.76411 21.9708 -29.6412 0.0 0.0 0.0 12.4385 10.4126 -4.83475 -44.559 -0.781985 6.62437 -21.2198 17.7576 3.23152 -19.5453 0.0 0.0 -0.0 0.0 -0.0 -13.3048 24.6856 -4.10496 -2.2043 -0.0844636 -0.327721 12.7102 -15.7893 1.80699 2.67348 -0.0 -0.0 0.0 0.0 0.0 
896.097935987 737.835 -1504.38629839 41.6653641728 74.8877407468 -42.9252682316 -4.02578 0.302808 1.53521 -4.02449 0.204517 1.55136 -4.01676 -0.235085 1.54702 -4.02009 0.0121573 1.56473 -0.0531582 16.425 -3.90129 0.928326 32.4916 -2.69744 -0.0 0.0 -0.0 0.369648 21.3699 3.0124 -18.0266 -21.8342 62.6033 0.527753 -14.6513 0.0678474 36.8914 -0.197525 -4.62809 -0.0850502 17.7098 6.67696 -0.0 0.0 -0.0 13.6619 23.9707 -27.4428 8.74285 33.8742 -46.4005 1.27184 32.2108 -0.367241 12.3253 -0.268617 1.54851 5.44736 22.7768 -26.8074 0.0 0.0 0.0 13.1833 8.58907 -4.80735 -42.1061 -0.606164 6.29057 -23.922 16.4459 3.63187 -21.93 0.0 0.0 -0.0 0.0 -0.0 -14.4179 25.5338 -3.1843 -4.4201 -0.156586 -0.660113 13.6623 -15.0587 1.93227 2.37683 -0.0 -0.0 0.0 0.0 0.0 
882.435090205 730.155 -1506.65419486 38.4244991124 73.8504852733 -39.3773797235 -4.06769 0.570759 1.47928 -4.0666 0.475483 1.51259 -4.05164 0.0351106 1.58516 -4.05503 0.284985 1.55973 -4.30707 17.0482 -3.04771 -3.88035 33.5724 -0.403656 -0.0 0.0 -0.0 -0.0962232 23.0776 2.53963 -18.77 -21.7921 62.4601 0.6048 -16.6784 0.0886539 37.5091 -0.226081 -4.70172 -0.12049 20.2942 7.46306 -0.0 0.0 -0.0 13.526 24.1336 -27.1078 12.108 34.8469 -46.4317 1.32079 33.1944 -0.39369 11.7041 -0.263098 1.46936 4.9559 23.5388 -22.8517 0.0 0.0 0.0 14.2948 7.31825 -5.31883 -32.1497 -0.044257 4.86949 -24.3887 20.8098 3.75275 -25.132 0.0 0.0 -0.0 0.0 -0.0 -15.3059 22.2425 -2.95618 -4.95188 -0.171976 -0.740272 17.4504 -11.064 2.41487 1.73875 -0.0 -0.0 0.0 0.0 0.0 
872.805189072 727.341 -1509.9664597 35.8447288143 73.9814331865 -36.8551469363 -4.00533 0.427208 1.43709 -4.00424 0.334906 1.46136 -3.99359 -0.0841505 1.49687 -3.99669 0.153281 1.49138 -11.1774 17.2399 -2.49763 -11.7688 34.2422 2.51861 -0.0 0.0 -0.0 -0.204006 23.5458 2.44494 -19.8743 -22.3066 62.42 0.639779 -17.585 0.0989581 38.2453 -0.261155 -4.78909 0.00671153 22.0725 8.89082 -0.0 0.0 -0.0 13.455 24.3406 -26.9199 15.049 36.1022 -47.5857 1.37698 34.2967 -0.424906 9.44247 -0.235764 1.18178 4.49571 21.0084 -21.13 0.0 0.0 0.0 15.9125 6.94981 -6.21128 -19.7147 0.298924 2.9957 -23.509 21.3788 3.62528 -26.8516 0.0 0.0 -0.0 0.0 -0.0 -16.4945 22.3254 -3.05079 -3.23337 -0.119559 -0.481751 20.13 -11.725 2.7557 2.85632 -0.0 -0.0 0.0 0.0 0.0 
850.433978363 726.909 -1506.8309233 34.388871287 73.920685853 -34.9842459177 -3.93152 0.614498 1.33865 -3.93068 0.528079 1.37503 -3.91599 0.127453 1.46741 -3.91882 0.357579 1.42888 -13.0217 17.5964 -2.29663 -13.9398 34.9071 3.49919 -0.0 0.0 -0.0 -0.392507 23.6488 2.20001 -20.5435 -22.0939 62.9247 0.616582 -16.9847 0.0920655 38.7539 -0.286042 -4.84918 -0.0103853 25.3909 10.0082 -0.0 0.0 -0.0 13.2898 24.3725 -26.5316 16.3199 36.6951 -48.1248 1.43411 35.3886 -0.457549 9.39761 -0.235107 1.17609 3.76405 23.4618 -14.763 0.0 0.0 0.0 16.7318 5.35676 -6.60417 -12.9322 0.312884 1.95577 -13.6888 23.4499 2.11912 -27.6364 0.0 0.0 -0.0 0.0 -0.0 -17.3474 20.5808 -3.34599 -2.77357 -0.10422 -0.412853 19.1076 -12.1326 2.62918 1.10347 -0.0 -0.0 0.0 0.0 0.0 
850.219377978 726.909 -1503.06468387 35.2170878962 74.2603164122 -35.8454452005 -3.93152 0.614498 1.33865 -3.93068 0.528079 1.37503 -3.91599 0.127453 1.46741 -3.91882 0.357579 1.42888 -13.0217 17.5964 -2.29663 -13.9398 34.9071 3.49919 -0.0 0.0 -0.0 -0.392507 23.6488 2.20001 -20.5435 -22.0939 62.9247 0.616582 -16.9847 0.0920655 38.7539 -0.286042 -4.84918 -0.0103853 25.3909 10.0082 -0.0 0.0 -0.0 13.2898 24.3725 -26.5316 16.3199 36.6951 -48.1248 1.43411 35.3886 -0.457549 9.39761 -0.235107 1.17609 3.76405 23.4618 -14.763 0.0 0.0 0.0 16.7318 5.35676 -6.60417 -12.9322 0.312884 1.95577 -13.6888 23.4499 2.11912 -27.6364 0.0 0.0 -0.0 0.0 -0.0 -17.3474 20.5808 -3.34599 -2.77357 -0.10422 -0.412853 19.1076 -12.1326 2.62918 1.10347 -0.0 -0.0 0.0 0.0 0.0 
849.931189136 726.909 -1497.00237456 36.6277377238 74.7992376258 -37.3091034687 -3.93152 0.614498 1.33865 -3.93068 0.528079 1.37503 -3.91599 0.127453 1.46741 -3.91882 0.357579 1.42888 -13.0217 17.5964 -2.29663 -13.9398 34.9071 3.49919 -0.0 0.0 -0.0 -0.392507 23.6488 2.20001 -20.5435 -22.0939 62.9247 0.616582 -16.9847 0.0920655 38.7539 -0.286042 -4.84918 -0.0103853 25.3909 10.0082 -0.0 0.0 -0.0 13.2898 24.3725 -26.5316 16.3199 36.6951 -48.1248 1.43411 35.3886 -0.457549 9.39761 -0.235107 1.17609 3.76405 23.4618 -14.763 0.0 0.0 0.0 16.7318 5.35676 -6.60417 -12.9322 0.312884 1.95577 -13.6888 23.4499 2.11912 -27.6364 0.0 0.0 -0.0 0.0 -0.0 -17.3474 20.5808 -3.34599 -2.77357 -0.10422 -0.412853 19.1076 -12.1326 2.62918 1.10347 -0.0 -0.0 0.0 0.0 0.0 
834.755538034 727.464 -1497.34098416 37.1878422585 76.5087165756 -37.243623308 -3.87352 0.315227 1.39827 -3.87246 0.225622 1.41549 -3.86505 -0.173236 1.42285 -3.86787 0.0536271 1.43236 -15.2841 17.5351 -2.51133 -16.5731 35.0079 4.11011 -0.0 0.0 -0.0 -0.861378 23.8174 1.58396 -20.9686 -22.5804 63.8337 0.652273 -17.9066 0.102766 39.355 -0.316138 -4.91991 -0.204471 28.0241 9.87108 -0.0 0.0 -0.0 13.2151 24.4999 -26.3443 17.4368 36.5015 -48.1442 1.4861 36.3571 -0.488013 7.93152 -0.211185 0.99035 3.60574 23.4475 -13.7121 0.0 0.0 0.0 16.8858 4.10798 -6.56856 -3.73913 0.135791 0.557673 -10.7428 24.2555 1.66412 -29.6381 0.0 0.0 -0.0 0.0 -0.0 -16.6119 19.71 -4.1882 -2.80204 -0.105186 -0.417115 20.1645 -10.726 2.75655 1.61296 -0.0 -0.0 0.0 0.0 0.0 
834.565426829 727.464 -1492.10225113 38.6431266624 76.9493977309 -38.7388212392 -3.87352 0.315227 1.39827 -3.87246 0.225622 1.41549 -3.86505 -0.173236 1.42285 -3.86787 0.0536271 1.43236 -15.2841 17.5351 -2.51133 -16.5731 35.0079 4.11011 -0.0 0.0 -0.0 -0.861378 23.8174 1.58396 -20.9686 -22.5804 63.8337 0.652273 -17.9066 0.102766 39.355 -0.316138 -4.91991 -0.204471 28.0241 9.87108 -0.0 0.0 -0.0 13.2151 24.4999 -26.3443 17.4368 36.5015 -48.1442 1.4861 36.3571 -0.488013 7.93152 -0.211185 0.99035 3.60574 23.4475 -13.7121 0.0 0.0 0.0 16.8858 4.10798 -6.56856 -3.73913 0.135791 0.557673 -10.7428 24.2555 1.66412 -29.6381 0.0 0.0 -0.0 0.0 -0.0 -16.6119 19.71 -4.1882 -2.80204 -0.105186 -0.417115 20.1645 -10.726 2.75655 1.61296 -0.0 -0.0 0.0 0.0 0.0 
834.409728584 727.464 -1486.06506119 40.4460710324 77.4456548801 -40.5877046568 -3.87352 0.315227 1.39827 -3.87246 0.225622 1.41549 -3.86505 -0.173236 1.42285 -3.86787 0.0536271 1.43236 -15.2841 17.5351 -2.51133 -16.5731 35.0079 4.11011 -0.0 0.0 -0.0 -0.861378 23.8174 1.58396 -20.9686 -22.5804 63.8337 0.652273 -17.9066 0.102766 39.355 -0.316138 -4.91991 -0.204471 28.0241 9.87108 -0.0 0.0 -0.0 13.2151 24.4999 -26.3443 17.4368 36.5015 -48.1442 1.4861 36.3571 -0.488013 7.93152 -0.211185 0.99035 3.60574 23.4475 -13.7121 0.0 0.0 0.0 16.8858 4.10798 -6.56856 -3.73913 0.135791 0.557673 -10.7428 24.2555 1.66412 -29.6381 0.0 0.0 -0.0 0.0 -0.0 -16.6119 19.71 -4.1882 -2.80204 -0.105186 -0.417115 20.1645 -10.726 2.75655 1.61296 -0.0 -0.0 0.0 0.0 0.0 
